<?xml version="1.0" standalone="no"?>
<!DOCTYPE svg PUBLIC "-//W3C//DTD SVG 20010904//EN"
 "http://www.w3.org/TR/2001/REC-SVG-20010904/DTD/svg10.dtd">
<svg version="1.0" xmlns="http://www.w3.org/2000/svg"
 width="900.000000pt" height="900.000000pt" viewBox="0 0 900.000000 900.000000"
 preserveAspectRatio="xMidYMid meet">
<metadata>
Created by potrace 1.10, written by Peter Selinger 2001-2011
</metadata>
<g transform="translate(0.000000,900.000000) scale(0.100000,-0.100000)"
fill="#000000" stroke="none">
<path d="M5099 6392 c-19 -8 -47 -20 -64 -27 -16 -8 -57 -22 -90 -32 -32 -10
-73 -30 -89 -45 -17 -16 -37 -28 -44 -28 -8 0 -40 -14 -71 -30 -43 -23 -70
-48 -109 -100 -29 -38 -52 -78 -52 -89 0 -10 -7 -24 -15 -31 -8 -7 -15 -24
-15 -38 0 -14 -4 -39 -9 -56 -5 -17 -14 -58 -20 -91 -6 -33 -13 -69 -16 -80
-3 -11 -1 -27 4 -35 8 -12 20 -9 73 18 35 17 76 33 91 34 44 5 36 23 -13 28
-42 5 -45 7 -53 43 -9 35 -6 43 28 93 21 30 44 54 52 54 11 0 13 9 7 45 -5 37
-3 45 9 45 9 0 22 9 30 20 7 10 26 29 41 41 24 19 31 20 51 9 27 -15 45 -6 45
21 0 31 19 59 40 59 10 0 21 8 24 18 7 21 30 35 95 57 50 17 65 10 66 -32 0
-29 25 -45 25 -16 1 25 54 76 77 71 14 -3 17 -11 15 -42 -2 -24 2 -42 10 -47
23 -15 28 -10 28 30 0 31 6 44 26 60 37 29 79 27 101 -5 10 -14 27 -37 39 -51
l21 -27 14 44 c11 36 20 45 44 52 48 12 89 -4 98 -38 5 -16 13 -42 19 -59 19
-56 20 -85 4 -125 -9 -22 -16 -65 -16 -95 0 -29 -4 -65 -10 -79 -11 -30 -4
-56 16 -56 21 0 34 43 34 110 0 52 2 58 19 53 13 -3 20 2 24 19 10 35 8 77 -4
100 -16 29 4 39 71 36 52 -3 56 -5 71 -38 12 -25 14 -40 7 -53 -18 -35 -38
-112 -38 -152 -1 -22 -7 -51 -15 -65 -8 -14 -14 -38 -15 -54 0 -23 3 -27 20
-23 23 6 28 -21 9 -40 -7 -7 -9 -19 -5 -29 5 -14 9 -13 27 10 18 23 20 35 14
86 -4 35 -3 60 2 60 5 0 18 35 28 78 20 82 40 122 59 122 15 0 91 -79 100
-103 8 -25 -29 -161 -53 -196 -11 -16 -25 -41 -31 -56 -6 -15 -28 -53 -50 -84
-22 -31 -41 -67 -42 -81 -5 -40 23 -30 47 18 12 23 27 48 33 54 7 7 12 19 12
27 0 8 12 26 28 40 15 14 32 35 38 45 27 50 47 18 20 -32 -8 -15 -30 -61 -50
-103 -19 -42 -53 -98 -74 -125 -96 -122 -182 -377 -138 -413 12 -10 16 -8 21
10 22 68 32 -95 14 -225 -7 -51 -15 -73 -29 -83 -13 -9 -20 -26 -20 -47 0 -19
-7 -47 -15 -62 -8 -16 -15 -37 -15 -46 0 -9 -4 -20 -10 -23 -15 -10 -12 -76 5
-95 19 -21 9 -56 -11 -39 -20 16 -34 2 -34 -37 0 -39 6 -41 49 -16 l31 17 0
102 c0 111 4 120 92 226 l26 32 24 -22 c55 -52 137 -4 200 116 21 40 38 80 38
88 0 10 6 12 20 8 17 -5 20 -2 20 22 0 15 7 41 15 56 8 15 19 73 25 128 10
102 38 177 83 227 26 28 34 28 43 0 7 -25 32 -47 51 -48 7 0 11 17 10 46 -1
28 3 49 9 51 7 2 36 -19 65 -47 53 -51 87 -56 55 -8 -14 22 -14 26 0 46 17 24
61 30 95 12 15 -8 18 -17 13 -38 -4 -15 -13 -31 -21 -35 -14 -8 -19 -47 -5
-47 4 0 21 23 37 50 17 27 38 52 48 56 23 7 73 -4 87 -21 8 -10 16 -7 40 17
25 25 32 27 51 18 15 -9 18 -15 10 -23 -14 -14 -14 -37 -1 -37 6 0 14 8 17 18
4 9 11 20 17 24 7 5 7 8 -1 8 -22 0 -14 28 9 36 15 4 25 1 35 -12 10 -14 24
-17 62 -15 27 1 52 -2 56 -8 10 -17 82 -51 107 -51 31 0 88 -36 88 -55 0 -8
-6 -15 -14 -15 -20 0 -31 -19 -18 -32 8 -8 15 -8 25 0 20 17 81 -23 72 -46
-14 -33 -17 -60 -6 -66 17 -11 -18 -58 -38 -51 -11 3 -30 -8 -52 -32 -46 -48
-94 -113 -84 -113 4 0 35 24 69 54 34 29 76 61 94 70 31 16 35 16 59 1 22 -15
24 -21 18 -57 -7 -38 -6 -40 15 -33 31 10 60 -20 60 -62 0 -19 7 -47 15 -63 8
-16 12 -36 9 -44 -5 -12 2 -18 25 -22 30 -6 31 -8 31 -58 0 -33 7 -61 19 -80
16 -24 17 -33 8 -50 -16 -28 -27 -36 -57 -37 -24 -1 -23 -1 8 -15 17 -8 32
-21 32 -30 0 -9 8 -23 18 -30 16 -13 16 -15 -2 -29 -21 -16 -15 -48 8 -43 27
6 16 -17 -12 -24 -31 -8 -89 -64 -78 -75 4 -4 27 -8 51 -8 54 0 61 -7 45 -45
-14 -33 -43 -45 -88 -37 -150 29 -165 30 -196 19 -18 -7 -60 -12 -94 -12 -33
0 -73 -5 -89 -11 -15 -6 -50 -15 -78 -19 -69 -12 -146 -30 -170 -39 -11 -5
-40 -14 -65 -21 -25 -6 -103 -41 -175 -76 -155 -76 -206 -86 -249 -50 -16 13
-26 28 -23 34 4 5 56 9 117 10 106 0 112 1 137 26 14 15 23 29 19 33 -4 4 -39
2 -79 -4 -236 -37 -280 -45 -328 -59 -30 -8 -75 -19 -100 -23 -41 -6 -100 -44
-88 -55 3 -3 23 -1 44 4 84 19 211 40 238 40 40 0 47 -28 14 -52 -89 -65 56
-83 171 -22 25 13 52 24 61 24 10 0 22 5 28 11 6 6 29 15 50 19 21 5 52 13 68
18 17 6 75 18 130 27 55 9 114 21 130 27 17 6 62 14 100 19 39 4 90 13 115 18
90 20 107 22 242 30 136 8 188 23 188 52 0 6 13 28 29 48 l29 36 0 190 c1 191
-11 273 -44 315 -22 28 -74 142 -74 164 -1 11 -7 32 -15 46 -8 14 -14 38 -15
53 0 31 -20 67 -62 111 -15 17 -28 38 -28 48 0 58 -123 172 -240 222 -25 11
-52 25 -60 32 -45 37 -228 57 -266 29 -24 -18 -315 -21 -394 -4 -75 16 -199
-4 -270 -43 -89 -48 -94 -60 -101 -223 -4 -77 -11 -154 -16 -170 -31 -95 -171
-305 -203 -305 -10 0 -15 58 -12 145 1 28 -4 72 -11 99 -11 40 -11 61 0 110 7
34 13 75 13 91 0 35 32 131 49 148 6 6 11 14 11 19 0 4 20 36 45 71 25 36 45
70 45 76 0 6 14 37 30 68 17 31 30 64 30 75 0 10 7 30 17 44 11 18 16 49 17
113 1 85 -6 111 -45 181 -5 8 -13 24 -18 35 -15 35 -112 125 -175 164 -19 12
-36 25 -38 29 -2 4 -22 22 -44 40 -31 24 -52 32 -82 32 -23 0 -45 6 -52 15 -7
8 -20 15 -29 15 -9 0 -29 7 -46 16 -40 21 -434 18 -486 -4z"/>
<path d="M2960 6300 c0 -5 9 -10 20 -10 11 0 20 5 20 10 0 6 -9 10 -20 10 -11
0 -20 -4 -20 -10z"/>
<path d="M3060 6264 c-17 -10 -41 -13 -75 -10 -27 3 -57 1 -65 -4 -17 -11 -14
-12 57 -15 27 0 51 -8 65 -21 24 -21 89 -44 127 -44 14 0 25 -9 31 -25 8 -21
14 -24 39 -19 25 5 31 2 45 -25 14 -26 21 -30 41 -25 19 5 25 2 25 -10 0 -11
9 -16 30 -16 20 0 30 -5 30 -14 0 -8 16 -27 35 -42 35 -27 65 -74 65 -104 0
-10 16 -24 41 -35 27 -13 47 -31 60 -56 18 -36 30 -52 102 -129 18 -19 40 -46
49 -60 12 -19 19 -22 28 -13 14 13 5 33 -16 33 -8 0 -14 7 -14 15 0 18 -55 96
-76 108 -8 4 -14 14 -14 21 0 7 -10 18 -23 25 -13 7 -31 25 -40 41 -38 63
-167 208 -200 223 -32 16 -91 60 -143 107 -12 11 -31 20 -42 20 -12 0 -24 5
-27 10 -4 6 -14 10 -24 8 -18 -3 -54 27 -64 55 -7 20 -13 20 -47 1z"/>
<path d="M2781 6234 c-7 -16 -15 -64 -16 -106 -2 -62 0 -78 12 -78 8 0 21 16
29 36 8 20 24 38 35 41 20 6 26 37 8 49 -7 4 0 17 17 35 15 16 25 32 21 35 -3
4 -26 9 -49 11 -40 5 -45 3 -57 -23z"/>
<path d="M4420 6228 c-32 -16 -33 -18 -10 -18 26 1 67 25 53 32 -4 2 -24 -4
-43 -14z"/>
<path d="M4538 6243 c12 -2 30 -2 40 0 9 3 -1 5 -23 4 -22 0 -30 -2 -17 -4z"/>
<path d="M5040 6153 c1 -53 2 -56 15 -39 16 21 18 38 9 74 -11 41 -24 22 -24
-35z"/>
<path d="M4326 6181 c-3 -4 -19 -11 -36 -14 -20 -5 -31 -14 -36 -30 -3 -14
-18 -30 -32 -36 -37 -17 -92 -54 -92 -63 0 -4 -18 -37 -40 -73 -22 -36 -40
-74 -40 -84 0 -11 -7 -26 -15 -35 -8 -8 -15 -24 -15 -36 0 -11 -9 -33 -21 -49
-13 -17 -19 -39 -17 -57 4 -38 32 -39 36 -1 2 16 14 44 28 64 13 20 24 44 24
53 0 10 7 23 15 30 8 7 15 18 15 26 0 26 35 90 80 144 48 58 110 120 122 120
4 0 13 6 20 13 7 7 22 18 33 25 20 11 20 11 -2 12 -12 0 -24 -4 -27 -9z"/>
<path d="M4508 6152 c-26 -8 -65 -31 -87 -51 l-39 -36 -7 -100 c-3 -55 -10
-111 -15 -125 -26 -73 -24 -89 15 -126 21 -19 41 -32 46 -27 4 4 3 47 -3 94
-9 79 -8 88 12 123 17 31 20 47 14 83 l-7 45 67 63 c36 35 62 66 58 68 -4 3
-28 -2 -54 -11z"/>
<path d="M5176 6105 c-24 -36 -18 -85 10 -85 10 0 14 15 14 55 0 30 -2 55 -4
55 -2 0 -11 -11 -20 -25z"/>
<path d="M5370 6095 c0 -8 5 -15 10 -15 6 0 10 7 10 15 0 8 -4 15 -10 15 -5 0
-10 -7 -10 -15z"/>
<path d="M5384 6026 c-9 -24 20 -121 36 -121 11 0 14 9 12 35 -7 75 -34 124
-48 86z"/>
<path d="M4882 6014 c4 -21 22 -23 26 -1 2 10 -3 17 -13 17 -10 0 -15 -6 -13
-16z"/>
<path d="M2563 5948 c-11 -13 -30 -42 -42 -66 -12 -24 -28 -45 -36 -49 -8 -3
-15 -13 -16 -22 0 -9 -11 -38 -24 -66 -13 -27 -21 -53 -19 -57 10 -16 23 -7
43 33 12 23 39 67 59 97 46 69 82 132 82 144 0 16 -27 8 -47 -14z"/>
<path d="M4828 5844 c-9 -20 -17 -25 -37 -21 -33 6 -51 -1 -44 -19 7 -19 48
-18 79 2 30 20 128 26 197 12 53 -11 66 -6 48 16 -9 11 -30 13 -83 10 -51 -2
-76 0 -91 11 -32 22 -56 18 -69 -11z"/>
<path d="M5604 5827 c-9 -24 6 -44 18 -22 7 11 6 21 -1 28 -7 7 -12 6 -17 -6z"/>
<path d="M5237 5803 c-12 -11 -8 -48 7 -69 20 -26 26 -16 19 34 -5 40 -12 50
-26 35z"/>
<path d="M4865 5730 c-3 -6 5 -10 19 -10 14 0 28 -4 31 -10 8 -12 25 -13 25
-2 0 9 -44 32 -60 32 -5 0 -12 -4 -15 -10z"/>
<path d="M5636 5714 c-9 -25 -7 -64 4 -64 6 0 10 18 10 40 0 43 -4 50 -14 24z"/>
<path d="M5740 5666 c-11 -25 -20 -58 -20 -74 0 -16 -7 -49 -15 -72 -17 -48
-19 -80 -6 -80 10 0 51 122 51 150 0 9 4 20 9 26 14 15 23 82 12 89 -6 3 -19
-14 -31 -39z"/>
<path d="M5270 5685 c0 -8 7 -15 15 -15 9 0 12 6 9 15 -4 8 -10 15 -15 15 -5
0 -9 -7 -9 -15z"/>
<path d="M2410 5645 c0 -13 -11 -41 -25 -62 -30 -44 -31 -99 -2 -97 9 0 42 1
72 2 30 1 55 7 55 12 0 6 -9 10 -21 10 -40 0 -59 19 -59 57 0 25 7 42 26 59
30 28 24 44 -17 44 -24 0 -29 -4 -29 -25z"/>
<path d="M4445 5639 c-22 -12 -44 -25 -49 -30 -6 -5 -19 -9 -29 -9 -25 0 -72
-27 -113 -65 -19 -16 -54 -46 -79 -65 -25 -19 -45 -41 -45 -48 0 -7 -20 -44
-45 -82 -50 -77 -54 -98 -24 -126 18 -16 19 -26 14 -88 -3 -38 -8 -87 -11
-108 -5 -28 -2 -45 12 -65 24 -36 38 -60 59 -99 9 -18 31 -49 49 -70 45 -53
123 -168 131 -194 4 -12 31 -58 61 -102 30 -45 54 -87 54 -94 0 -7 -9 -16 -20
-19 -15 -5 -20 -15 -20 -44 0 -31 -8 -44 -53 -89 -54 -53 -74 -61 -95 -40 -9
9 -18 6 -39 -14 -24 -22 -32 -24 -52 -15 -19 9 -26 8 -36 -6 -7 -9 -16 -17
-20 -17 -14 0 -130 -54 -165 -77 -19 -13 -42 -23 -51 -23 -15 0 -14 6 7 50 13
27 24 56 24 62 0 16 61 83 81 90 12 4 11 10 -3 35 -17 30 -17 30 15 65 48 52
139 108 175 108 22 0 32 6 37 20 8 25 31 26 44 3 9 -16 10 -16 11 4 0 12 -4
33 -10 47 -9 24 -12 25 -61 19 -39 -5 -69 -18 -118 -51 -36 -24 -70 -49 -76
-56 -5 -6 -26 -23 -46 -38 -37 -27 -78 -93 -114 -178 -10 -25 -28 -68 -41 -95
-12 -28 -25 -64 -29 -80 -4 -17 -13 -47 -21 -68 -8 -20 -14 -52 -14 -71 0 -30
-16 -77 -40 -116 -6 -8 -16 -28 -24 -45 -26 -52 -54 -77 -95 -82 -33 -5 -44
-1 -77 29 -22 18 -61 51 -87 72 -26 21 -53 52 -60 69 -12 29 -14 30 -27 12 -8
-10 -43 -47 -78 -83 -34 -35 -70 -74 -78 -88 -17 -25 -73 -58 -83 -48 -3 3 1
9 8 14 8 4 11 15 7 25 -6 17 -25 16 -70 -1 -25 -10 -31 25 -12 61 22 41 65 71
180 129 89 44 90 45 63 57 -57 26 -219 -27 -288 -95 -18 -17 -39 -47 -47 -66
-8 -19 -24 -57 -37 -85 -13 -28 -26 -81 -29 -120 -4 -38 -11 -87 -17 -107 -8
-33 -14 -38 -47 -43 -20 -3 -58 -12 -83 -19 -34 -10 -62 -11 -108 -4 -55 8
-66 7 -97 -11 -19 -12 -44 -21 -54 -21 -45 0 -122 -106 -101 -137 6 -10 66
-33 83 -33 5 0 8 8 7 18 -3 36 1 42 35 42 29 0 33 3 29 23 -4 19 2 26 27 37
18 7 37 13 44 12 6 -1 38 -4 71 -6 54 -4 64 -1 103 26 39 27 45 29 59 15 14
-13 14 -18 1 -44 -9 -15 -23 -50 -33 -78 -10 -27 -24 -68 -32 -90 -7 -22 -26
-51 -42 -65 -16 -14 -36 -45 -44 -70 -12 -36 -20 -46 -41 -48 -25 -3 -26 -1
-26 46 0 35 -4 52 -15 56 -9 3 -15 18 -15 35 0 32 -14 49 -25 30 -4 -6 -18 -8
-31 -5 -30 8 -30 5 1 -44 14 -22 25 -45 25 -52 0 -6 12 -24 26 -39 23 -24 30
-42 51 -126 7 -29 -86 -123 -122 -123 -16 0 -25 -6 -25 -15 0 -10 -10 -15 -29
-15 -15 0 -59 -14 -97 -31 -97 -44 -162 -104 -194 -179 -17 -38 -89 -141 -127
-180 -18 -19 -33 -37 -33 -40 0 -4 -31 -30 -69 -58 -58 -43 -77 -52 -112 -52
-41 0 -41 0 -36 33 3 17 10 50 16 72 6 22 10 92 10 155 -1 63 2 131 6 151 4
20 2 45 -3 55 -13 25 17 120 55 177 16 23 50 56 77 72 113 71 204 144 232 189
16 25 53 77 82 115 30 40 52 80 52 94 0 31 23 76 77 154 24 34 43 67 43 72 0
14 -37 14 -45 1 -13 -21 -82 -48 -140 -54 -33 -4 -73 -13 -90 -21 -54 -24
-108 -36 -205 -45 -52 -5 -144 -14 -205 -20 -110 -12 -304 -8 -520 8 -114 9
-149 3 -143 -25 6 -33 63 -51 209 -67 79 -9 151 -17 159 -18 19 -3 87 8 205
34 50 10 126 21 170 24 44 3 95 10 113 16 22 6 37 6 45 0 8 -7 30 -1 70 19 33
16 67 29 78 29 10 0 28 9 40 21 30 30 73 23 77 -15 3 -20 -3 -32 -20 -44 -36
-25 -128 -114 -128 -124 0 -8 -38 -66 -51 -78 -11 -10 -69 -101 -69 -109 0 -7
-26 -40 -90 -116 -19 -22 -48 -72 -64 -110 -16 -39 -34 -76 -40 -84 -13 -17
-14 -34 -15 -279 0 -153 -3 -196 -15 -207 -19 -19 -19 -130 0 -146 20 -17 68
-4 120 31 25 16 56 33 70 36 13 3 30 14 37 23 6 9 37 37 69 63 37 32 84 90
141 176 47 70 97 138 110 150 13 13 55 34 92 47 37 13 89 37 116 55 58 37 159
146 159 171 0 10 6 22 13 26 13 8 23 24 58 88 12 22 34 56 50 77 28 34 69 113
137 258 17 36 47 88 67 115 19 28 41 58 48 69 29 43 82 111 89 114 4 2 8 10 8
17 0 26 19 26 69 1 58 -30 214 -169 297 -266 34 -40 209 -187 239 -201 51 -25
73 -41 113 -86 23 -26 42 -55 42 -64 0 -9 7 -22 15 -29 8 -7 15 -22 15 -34 0
-12 7 -31 15 -42 8 -10 15 -26 15 -35 0 -16 20 -67 66 -167 13 -29 24 -57 24
-62 0 -5 7 -26 16 -47 9 -21 24 -54 32 -73 8 -19 21 -48 28 -63 8 -16 14 -39
14 -51 0 -12 7 -31 15 -42 8 -10 15 -26 15 -34 0 -8 12 -40 27 -70 24 -52 26
-53 33 -30 5 14 8 39 9 56 1 38 56 153 76 160 21 8 19 31 -4 44 -11 5 -22 23
-26 40 -4 16 -11 32 -16 35 -5 4 -9 18 -9 33 -1 15 -7 38 -15 52 -8 14 -14 34
-15 46 0 22 -66 182 -81 198 -5 6 -9 18 -9 27 0 10 -5 30 -12 46 -29 71 -47
130 -48 153 0 14 -7 36 -15 50 -8 14 -15 43 -15 65 0 22 -7 49 -15 59 -8 11
-15 38 -15 60 0 23 -5 57 -10 76 -6 19 -15 64 -20 100 -17 114 -46 222 -76
283 -8 16 -14 34 -14 41 0 7 -7 28 -17 46 -16 32 -15 34 7 52 12 10 30 18 40
18 10 0 23 7 30 15 7 8 22 15 34 15 12 0 31 7 43 15 12 8 66 33 120 55 54 22
110 49 125 60 15 11 34 20 42 20 8 0 17 4 21 9 3 6 26 20 50 32 72 36 79 48
72 129 l-6 70 27 0 c16 0 40 -11 56 -27 23 -21 91 -63 102 -63 2 0 6 190 5
243 0 24 9 54 28 85 16 26 34 65 41 87 7 22 18 47 25 55 32 38 48 243 30 398
-9 85 -26 93 -61 27 -36 -68 -37 -90 -9 -131 36 -53 40 -79 19 -112 -11 -15
-19 -38 -19 -52 0 -17 -6 -26 -20 -28 -44 -7 -49 -12 -29 -27 18 -14 18 -15
-5 -34 l-24 -19 21 -11 c26 -14 28 -38 7 -61 -19 -21 -46 -115 -45 -156 0 -27
-4 -32 -39 -42 -21 -7 -44 -19 -51 -27 -7 -8 -18 -15 -25 -15 -26 0 -65 63
-87 136 -15 52 -31 84 -54 108 -18 19 -36 47 -39 63 -6 28 -17 65 -29 94 -11
26 31 31 89 11 27 -9 56 -23 63 -29 7 -7 22 -13 34 -13 27 0 18 22 -15 38 -15
7 -32 23 -38 35 -24 47 -51 67 -90 67 -21 0 -41 -5 -44 -10 -4 -6 -16 -8 -28
-4 -16 5 -26 -1 -44 -22 -16 -21 -25 -26 -34 -17 -14 14 5 53 26 53 31 0 9 31
-39 55 -16 8 -21 20 -21 50 0 22 -6 61 -14 86 -9 32 -10 60 -4 90 8 40 11 44
41 47 23 2 43 -4 65 -20 18 -13 43 -28 57 -34 72 -32 78 -33 109 -18 17 9 31
19 31 23 0 11 -76 35 -88 27 -5 -3 -15 1 -22 9 -7 8 -21 15 -32 15 -24 0 -34
27 -19 53 9 14 10 22 2 30 -23 23 -12 56 27 76 47 25 92 64 93 82 0 8 6 -2 13
-21 15 -41 39 -50 52 -19 8 18 6 27 -8 41 -11 11 -18 25 -15 31 5 17 69 31
101 23 l26 -6 -32 -29 c-28 -25 -31 -31 -19 -45 10 -12 17 -14 25 -6 5 5 20
10 32 10 31 0 39 16 21 44 -10 15 -12 28 -6 37 14 23 11 28 -27 44 -47 19 -52
19 -99 -6z m-606 -1917 c12 -29 21 -68 21 -86 0 -18 6 -55 14 -82 8 -27 16
-102 19 -167 4 -117 4 -118 -16 -100 -11 10 -30 35 -43 56 -15 22 -32 37 -44
37 -26 0 -25 -4 10 -62 17 -26 30 -53 30 -59 0 -6 9 -22 20 -36 46 -59 5 -59
-53 0 -24 23 -73 66 -110 96 -37 30 -67 58 -67 61 0 4 -11 19 -25 34 -14 15
-25 31 -25 35 0 9 -180 142 -242 179 -20 13 -38 29 -41 36 -9 23 22 56 52 56
27 0 45 -13 153 -107 27 -24 51 -43 54 -43 3 0 30 16 61 36 50 32 58 34 84 24
38 -16 52 -5 44 36 -3 19 -2 34 3 34 5 0 19 23 31 52 19 45 23 50 36 37 7 -8
23 -38 34 -67z m-819 -142 c0 -11 -5 -20 -12 -20 -6 0 -22 -10 -35 -22 -32
-30 -38 -18 -12 26 23 40 59 50 59 16z"/>
<path d="M5305 5649 c5 -8 23 -34 41 -59 18 -25 36 -58 40 -74 3 -15 17 -32
30 -38 13 -6 31 -27 40 -47 9 -20 21 -41 28 -46 6 -6 21 -28 32 -50 51 -93 60
-31 12 80 -25 58 -49 93 -108 154 -41 43 -86 82 -99 86 -18 5 -22 4 -16 -6z"/>
<path d="M4672 5628 c2 -6 10 -14 16 -16 7 -2 10 2 6 12 -7 18 -28 22 -22 4z"/>
<path d="M3245 5620 c-4 -6 -1 -18 6 -26 15 -19 4 -31 -15 -15 -24 20 -30 -7
-10 -45 22 -40 34 -44 34 -9 0 14 6 25 13 25 8 0 73 -60 145 -132 141 -144
166 -172 176 -203 3 -12 23 -41 45 -65 37 -42 54 -72 88 -150 8 -19 19 -42 24
-50 5 -8 20 -40 34 -70 14 -30 37 -78 51 -107 22 -44 25 -61 21 -120 -2 -37
-9 -85 -15 -106 -5 -20 -6 -39 -2 -42 4 -3 11 7 15 22 3 15 18 43 33 62 15 20
32 44 37 53 6 9 36 54 68 101 53 78 57 87 46 111 -7 14 -16 26 -21 26 -6 0
-34 -25 -64 -55 -30 -30 -59 -55 -64 -55 -14 0 -27 30 -35 84 -5 36 -11 50
-26 53 -22 6 -49 51 -49 83 0 26 -24 74 -61 121 -16 20 -29 42 -29 48 0 16
-54 124 -82 164 -20 30 -62 76 -170 187 -39 40 -58 57 -108 96 -23 18 -77 27
-85 14z"/>
<path d="M5552 5589 c1 -13 8 -23 13 -21 15 3 12 35 -3 40 -9 3 -13 -3 -10
-19z"/>
<path d="M3974 5575 c-13 -20 -19 -54 -22 -131 -3 -57 -9 -107 -13 -110 -12
-7 -12 -44 0 -44 5 0 19 19 31 43 12 23 27 47 34 52 20 16 27 74 16 139 -12
74 -23 86 -46 51z"/>
<path d="M3794 5555 c-3 -8 3 -31 15 -50 12 -20 21 -48 21 -61 0 -16 5 -24 13
-21 13 4 11 64 -3 82 -4 6 -10 22 -14 38 -7 29 -23 36 -32 12z"/>
<path d="M2690 5474 c-6 -15 -9 -33 -6 -41 7 -16 47 -17 69 0 16 11 14 15 -18
40 l-35 28 -10 -27z"/>
<path d="M2813 5480 c-37 -15 -27 -29 15 -23 44 7 46 8 37 22 -7 13 -22 13
-52 1z"/>
<path d="M4512 5478 c-7 -7 -12 -25 -12 -41 l0 -29 29 24 c35 27 37 34 13 47
-13 7 -23 6 -30 -1z"/>
<path d="M4430 5390 c-21 -16 -23 -22 -14 -37 12 -19 81 -50 90 -40 3 3 -3 16
-15 28 -12 13 -21 31 -21 40 0 27 -13 29 -40 9z"/>
<path d="M2040 5375 c-18 -22 -25 -92 -10 -110 12 -14 15 -14 32 1 17 16 19
16 31 -1 13 -16 15 -16 35 10 26 33 27 44 7 51 -8 4 -15 14 -15 25 0 34 -57
51 -80 24z"/>
<path d="M7103 5373 c-2 -10 -22 -31 -43 -48 -53 -41 -81 -105 -46 -105 21 0
86 80 86 106 0 13 9 28 20 34 11 6 18 15 15 21 -10 15 -26 10 -32 -8z"/>
<path d="M2242 5355 c-9 -20 -9 -25 1 -25 17 0 37 20 37 37 0 22 -26 14 -38
-12z"/>
<path d="M6686 5287 c-34 -49 -46 -87 -28 -87 22 0 82 91 82 125 0 28 -17 16
-54 -38z"/>
<path d="M2487 5294 c-16 -19 -35 -34 -42 -34 -8 0 -15 -17 -19 -42 -11 -82
-14 -93 -24 -120 -9 -23 -8 -37 8 -74 11 -25 20 -48 20 -51 0 -3 -22 -3 -48 1
-27 3 -51 3 -55 0 -9 -9 91 -112 127 -129 39 -20 44 -19 82 10 18 14 36 25 40
25 4 0 28 10 53 22 l46 22 -72 11 c-80 12 -114 35 -139 94 -22 53 -17 81 33
187 26 54 49 102 51 107 2 4 -5 7 -15 6 -10 0 -31 -16 -46 -35z"/>
<path d="M4818 5314 c-4 -3 -5 -11 -2 -18 3 -7 -7 -18 -21 -24 -42 -19 -28
-27 37 -22 50 4 64 9 66 23 3 15 -1 17 -23 11 -22 -5 -26 -3 -23 12 3 18 -22
31 -34 18z"/>
<path d="M1847 5299 c-21 -12 -11 -36 40 -89 18 -19 40 -43 49 -52 9 -9 17
-31 19 -50 2 -18 15 -69 29 -112 15 -43 26 -83 26 -88 0 -13 57 -95 102 -145
21 -24 38 -51 38 -61 0 -15 48 -62 64 -62 3 0 22 -11 42 -25 37 -25 94 -34 94
-15 0 5 -18 29 -40 52 -23 22 -48 54 -58 70 -9 15 -25 31 -35 34 -19 6 -86 73
-87 87 0 4 14 1 30 -8 28 -15 30 -14 30 3 0 10 -11 28 -25 40 -14 12 -25 28
-25 37 0 8 -9 19 -20 25 -11 6 -35 31 -55 57 -30 39 -35 54 -35 99 0 50 -10
68 -25 44 -9 -14 -35 -13 -35 2 0 6 8 20 17 30 14 16 15 22 4 40 -9 15 -10 23
-2 31 6 6 11 21 11 34 0 21 -4 23 -54 23 -30 0 -60 2 -68 5 -7 2 -21 0 -31 -6z"/>
<path d="M2737 5277 c-16 -12 -49 -41 -75 -63 l-46 -42 17 -56 c10 -30 22 -58
28 -61 5 -4 18 -24 29 -46 11 -21 28 -39 37 -39 14 0 15 9 10 63 -4 34 -9 71
-13 83 -4 14 3 30 19 50 24 28 26 28 62 15 31 -11 54 -11 129 -1 80 11 98 11
148 -4 31 -9 73 -16 94 -16 32 0 105 -27 166 -60 27 -15 38 -12 38 10 0 28
-40 80 -61 80 -9 0 -33 13 -53 29 -46 37 -106 56 -215 70 -78 10 -88 10 -125
-10 -22 -11 -51 -29 -64 -40 -14 -10 -36 -19 -49 -19 l-25 0 21 35 c13 23 16
35 8 35 -7 0 -21 2 -32 5 -12 3 -32 -4 -48 -18z"/>
<path d="M5097 5263 c-20 -19 -2 -25 58 -18 l65 7 44 -42 c24 -23 58 -50 75
-61 17 -10 31 -23 31 -29 0 -5 7 -10 15 -10 22 0 18 27 -5 40 -11 6 -20 17
-20 25 0 21 -61 63 -116 80 -51 15 -136 20 -147 8z"/>
<path d="M6922 5210 c-11 -18 -10 -20 8 -20 13 0 20 7 20 20 0 11 -3 20 -8 20
-4 0 -13 -9 -20 -20z"/>
<path d="M3930 5190 c0 -11 5 -20 10 -20 6 0 10 9 10 20 0 11 -4 20 -10 20 -5
0 -10 -9 -10 -20z"/>
<path d="M5610 5179 c0 -11 5 -17 10 -14 6 3 10 13 10 21 0 8 -4 14 -10 14 -5
0 -10 -9 -10 -21z"/>
<path d="M4860 5180 c-17 -11 -16 -12 56 -117 32 -47 40 -67 36 -91 -4 -27 -1
-32 22 -38 14 -3 26 -12 26 -19 0 -7 6 -18 14 -24 8 -7 18 -26 21 -42 4 -16
13 -29 21 -29 10 0 12 10 8 44 -8 53 1 60 58 47 55 -13 70 0 38 34 -13 14 -29
25 -37 25 -7 0 -25 18 -39 40 -15 22 -49 55 -75 72 -27 17 -49 35 -49 39 0 4
-12 21 -26 38 -27 32 -48 38 -74 21z m200 -196 c0 -8 7 -17 15 -20 19 -8 20
-24 2 -24 -21 0 -50 37 -43 55 7 19 26 11 26 -11z"/>
<path d="M6598 5155 c-6 -14 -8 -28 -4 -32 9 -9 47 38 40 49 -10 15 -25 8 -36
-17z"/>
<path d="M6410 5145 c0 -8 -9 -19 -20 -25 -12 -7 -20 -21 -20 -38 l0 -26 36
37 c22 22 34 43 30 52 -7 19 -26 20 -26 0z"/>
<path d="M1852 5128 c2 -13 8 -23 13 -23 6 0 11 10 13 23 2 15 -2 22 -13 22
-11 0 -15 -7 -13 -22z"/>
<path d="M6797 5119 c7 -24 -27 -59 -56 -59 -14 0 -23 -9 -27 -25 -11 -44 4
-40 61 16 56 55 70 89 36 89 -14 0 -18 -5 -14 -21z"/>
<path d="M4420 5116 c0 -10 122 -86 130 -81 11 7 -33 55 -49 55 -5 0 -14 7
-21 15 -11 13 -60 22 -60 11z"/>
<path d="M4596 5111 c-7 -11 22 -23 36 -15 6 4 5 10 -3 15 -18 11 -26 11 -33
0z"/>
<path d="M2828 5088 c-9 -8 -20 -44 -27 -93 -7 -44 -14 -87 -17 -96 -5 -19 34
-39 76 -39 30 0 30 1 31 58 2 85 -1 110 -17 148 -16 37 -22 40 -46 22z"/>
<path d="M2980 5076 c0 -9 7 -16 16 -16 17 0 14 22 -4 28 -7 2 -12 -3 -12 -12z"/>
<path d="M5410 5075 c0 -16 67 -95 81 -95 5 0 9 18 9 40 0 36 -3 41 -36 55
-46 19 -54 19 -54 0z"/>
<path d="M7017 5067 c-3 -8 -22 -22 -42 -32 -27 -12 -34 -20 -24 -25 20 -13
89 26 89 50 0 23 -15 27 -23 7z"/>
<path d="M3142 5048 c2 -12 10 -23 18 -23 22 0 19 39 -3 43 -15 3 -18 -1 -15
-20z"/>
<path d="M6577 5044 c-11 -14 -16 -28 -13 -31 8 -9 46 27 46 44 0 20 -13 15
-33 -13z"/>
<path d="M2309 5043 c-2 -35 6 -62 15 -52 2 2 7 19 11 37 5 25 3 32 -9 32 -9
0 -17 -8 -17 -17z"/>
<path d="M5610 5036 c0 -31 6 -34 13 -6 3 11 1 23 -4 26 -5 3 -9 -6 -9 -20z"/>
<path d="M3620 4992 c0 -10 7 -27 15 -38 8 -10 15 -31 15 -46 0 -15 5 -39 11
-55 6 -15 15 -53 20 -83 40 -245 41 -257 14 -290 -7 -8 -16 -24 -20 -35 -6
-16 -9 -12 -16 24 -5 24 -17 54 -28 65 -11 13 -21 41 -24 71 -14 149 -27 197
-73 281 -44 81 -74 107 -74 63 0 -11 5 -29 10 -40 6 -10 22 -58 36 -106 14
-49 29 -92 35 -97 5 -6 9 -21 9 -35 0 -15 6 -38 14 -52 16 -32 23 -60 35 -141
15 -104 -13 -196 -87 -286 -36 -45 -47 -52 -122 -72 -25 -7 -73 -21 -107 -31
-34 -11 -72 -17 -86 -14 -17 5 -33 -1 -56 -21 -37 -31 -36 -38 5 -24 16 5 66
11 111 14 45 2 92 10 105 17 12 7 48 14 78 15 107 6 115 10 145 72 15 32 37
70 49 87 26 36 43 65 51 85 4 8 12 26 19 40 8 14 19 43 26 65 7 22 19 49 26
60 25 35 17 145 -16 245 -16 50 -30 96 -30 104 0 7 -7 19 -15 26 -8 7 -15 23
-15 36 0 12 -7 29 -15 38 -8 8 -15 21 -15 29 0 23 -11 47 -21 47 -5 0 -9 -8
-9 -18z"/>
<path d="M5627 4976 c-7 -18 4 -96 14 -96 13 0 20 56 10 83 -12 30 -17 33 -24
13z"/>
<path d="M7002 4940 c-13 -16 -31 -30 -41 -30 -24 0 -42 -22 -32 -38 6 -10 19
-7 54 14 43 27 73 65 60 78 -11 11 -19 6 -41 -24z"/>
<path d="M6617 4939 c-9 -6 -17 -16 -17 -23 0 -8 -16 -31 -35 -52 -41 -44 -50
-84 -11 -44 14 14 41 41 60 60 35 33 44 54 28 64 -4 2 -15 0 -25 -5z"/>
<path d="M1669 4919 c-7 -5 -28 -9 -45 -9 -17 0 -37 -7 -44 -15 -7 -9 -29 -15
-51 -15 -21 0 -40 -4 -44 -9 -10 -17 -68 -41 -85 -36 -10 3 -23 -1 -30 -10 -7
-8 -19 -15 -27 -15 -8 0 -29 -11 -47 -25 -18 -14 -40 -25 -48 -25 -9 0 -21 -7
-28 -15 -7 -8 -17 -15 -23 -15 -6 0 -33 -14 -61 -32 -100 -63 -128 -91 -157
-156 -34 -75 -36 -98 -9 -112 12 -6 20 -21 20 -35 0 -35 35 -97 78 -138 20
-19 46 -47 57 -61 11 -15 30 -29 42 -32 30 -8 40 -57 19 -89 -21 -32 -20 -80
1 -105 15 -17 30 -20 97 -20 44 0 95 5 113 12 25 9 43 9 76 1 34 -10 43 -9 50
3 9 16 122 20 132 5 3 -6 26 -13 50 -17 25 -3 48 -10 51 -15 3 -5 15 -9 27 -9
26 0 163 -42 195 -59 12 -7 50 -16 85 -21 99 -15 131 -22 144 -32 7 -5 16 -7
20 -5 5 3 56 11 113 17 58 6 120 13 139 17 l34 6 -6 -42 c-3 -22 -3 -41 0 -41
2 0 24 9 49 21 25 11 55 19 67 17 33 -5 26 -32 -11 -43 -24 -7 -31 -14 -27
-26 4 -10 -2 -23 -13 -31 -10 -7 -21 -21 -25 -32 -5 -13 -14 -17 -32 -13 -14
2 -28 0 -31 -4 -3 -5 -15 -9 -28 -9 -21 0 -56 -27 -56 -44 0 -4 9 -4 20 -1 16
5 20 2 20 -15 0 -11 -7 -23 -15 -26 -8 -4 -15 -12 -15 -19 0 -30 24 -25 62 14
23 22 46 41 53 41 15 0 146 86 166 110 15 17 104 90 161 131 12 9 19 22 16 30
-4 11 -32 14 -144 12 -77 -2 -174 -3 -217 -2 -50 0 -90 -5 -110 -14 -42 -20
-246 -22 -253 -3 -5 14 -65 42 -162 77 -35 12 -78 32 -95 43 -39 26 -136 73
-186 91 -47 16 -182 5 -266 -24 -33 -11 -94 -31 -135 -45 -41 -14 -82 -24 -91
-21 -26 8 -31 43 -8 55 12 7 19 21 19 41 0 17 4 39 10 49 8 15 2 26 -33 60
-95 92 -117 115 -117 126 0 6 -18 27 -40 47 -22 19 -40 43 -40 51 0 9 15 24
34 33 19 10 47 37 63 59 15 23 55 64 88 90 76 62 81 66 135 112 82 69 128 102
143 102 8 0 20 7 27 15 16 19 40 19 40 0 0 -11 4 -13 18 -6 34 19 88 40 117
47 33 7 55 22 55 35 0 15 -35 28 -51 18z"/>
<path d="M1735 4920 c-4 -6 5 -10 19 -10 13 0 30 -2 38 -5 7 -3 21 0 31 7 15
11 11 13 -32 15 -28 1 -53 -2 -56 -7z"/>
<path d="M2723 4846 c-13 -6 -23 -14 -23 -18 0 -4 -21 -19 -46 -34 -48 -28
-74 -70 -74 -119 0 -26 14 -33 26 -14 3 6 19 9 35 7 32 -5 39 11 14 32 -12 10
-9 17 21 47 33 32 37 34 53 19 25 -23 43 -19 65 11 17 22 17 27 4 37 -8 6 -17
19 -21 29 -7 19 -21 20 -54 3z"/>
<path d="M6925 4803 c-22 -9 -55 -16 -74 -16 -26 0 -42 -9 -71 -41 -21 -22
-36 -44 -34 -48 2 -3 21 -2 41 4 30 8 38 7 45 -6 14 -25 54 -19 87 13 16 16
35 31 43 34 10 4 10 7 1 18 -10 10 -10 16 3 30 22 25 5 29 -41 12z"/>
<path d="M7257 4806 c-4 -10 -5 -21 -2 -24 9 -9 17 6 13 25 -3 17 -4 17 -11
-1z"/>
<path d="M2880 4775 c0 -10 7 -15 18 -13 21 4 19 22 -2 26 -10 2 -16 -3 -16
-13z"/>
<path d="M6330 4760 c0 -19 3 -21 12 -12 9 9 9 15 0 24 -9 9 -12 7 -12 -12z"/>
<path d="M6386 4734 c-8 -22 -8 -64 2 -64 15 0 30 16 46 48 l17 32 -30 0 c-17
0 -31 -6 -35 -16z"/>
<path d="M4872 4688 c-12 -14 -22 -29 -22 -36 0 -6 -9 -16 -20 -22 -11 -6 -20
-16 -20 -22 0 -7 -9 -21 -20 -33 -13 -14 -26 -52 -36 -106 -9 -46 -25 -105
-35 -132 -10 -26 -19 -59 -19 -73 0 -21 4 -24 27 -22 24 3 28 -2 36 -34 12
-49 25 -48 33 2 4 22 11 43 15 46 5 3 9 16 9 29 0 13 5 25 10 27 10 3 -1 35
-30 89 -13 25 -1 57 23 61 12 2 23 12 25 23 2 11 11 28 19 37 9 10 13 24 9 33
-9 25 12 55 39 55 33 0 34 34 2 73 l-22 28 -23 -23z"/>
<path d="M5150 4665 c0 -8 5 -15 10 -15 6 0 10 7 10 15 0 8 -4 15 -10 15 -5 0
-10 -7 -10 -15z"/>
<path d="M6558 4659 c-10 -5 -18 -16 -18 -23 0 -11 7 -10 35 2 19 9 35 20 35
24 0 11 -32 9 -52 -3z"/>
<path d="M6013 4574 c-13 -12 -23 -24 -23 -28 0 -8 -38 -63 -58 -84 -17 -19
-11 -56 10 -60 15 -3 33 26 91 155 14 32 5 41 -20 17z"/>
<path d="M2401 4575 c-1 -11 8 -31 19 -45 17 -21 21 -23 30 -10 5 8 9 29 9 45
-1 17 -3 22 -6 13 -2 -10 -9 -18 -15 -18 -6 0 -17 8 -24 18 -13 16 -13 16 -13
-3z"/>
<path d="M6401 4549 c-70 -57 -122 -93 -143 -102 -10 -3 -18 -10 -18 -15 0 -5
-17 -21 -37 -35 -21 -14 -56 -41 -77 -61 -22 -20 -43 -36 -48 -36 -4 0 -8 -9
-8 -20 0 -37 17 -28 135 77 22 19 49 39 60 43 22 8 56 37 143 116 71 66 66 92
-7 33z"/>
<path d="M6667 4555 c-9 -13 -13 -26 -9 -29 9 -6 42 29 42 44 0 17 -14 10 -33
-15z"/>
<path d="M6121 4498 c-125 -134 -119 -125 -100 -160 11 -20 11 -20 35 3 13 12
24 27 24 32 0 9 24 41 81 106 25 29 40 81 23 81 -3 0 -31 -28 -63 -62z"/>
<path d="M5876 4494 c-7 -28 0 -47 15 -39 12 8 12 52 0 59 -5 3 -12 -6 -15
-20z"/>
<path d="M6815 4509 c-4 -6 -5 -12 -3 -14 7 -7 48 7 48 16 0 13 -37 11 -45 -2z"/>
<path d="M5360 4497 c0 -18 46 -87 58 -87 10 0 10 5 1 22 -14 27 -59 76 -59
65z"/>
<path d="M6755 4479 c-10 -16 1 -22 26 -14 17 6 19 9 8 16 -19 12 -26 11 -34
-2z"/>
<path d="M2347 4443 c-20 -20 19 -83 51 -83 16 0 16 62 0 78 -13 13 -41 16
-51 5z"/>
<path d="M1906 4431 c-3 -5 1 -12 10 -15 24 -9 124 -7 124 3 0 18 -124 29
-134 12z"/>
<path d="M2060 4430 c-8 -5 -11 -12 -8 -16 12 -11 126 -15 133 -4 7 12 -5 16
-65 24 -25 3 -52 1 -60 -4z"/>
<path d="M5577 4423 c-4 -3 -7 -14 -7 -24 0 -9 -7 -19 -15 -23 -8 -3 -15 -12
-15 -21 0 -20 -3 -20 -55 17 -24 17 -47 29 -51 25 -9 -9 47 -107 68 -118 24
-13 38 -3 38 25 0 13 16 39 36 60 21 22 33 43 30 51 -6 16 -18 19 -29 8z"/>
<path d="M5270 4402 c0 -4 8 -15 18 -24 9 -9 22 -23 28 -30 7 -7 29 -26 49
-43 41 -33 81 -90 87 -123 3 -20 3 -20 33 4 29 23 29 25 15 50 -8 15 -22 30
-30 34 -71 34 -124 72 -169 123 -16 18 -31 22 -31 9z"/>
<path d="M5703 4329 c-46 -93 -73 -160 -73 -176 0 -7 -9 -31 -20 -53 -25 -49
-25 -49 5 -60 13 -5 32 -24 41 -42 23 -46 54 -78 75 -78 25 0 42 36 34 68 -6
25 -8 26 -19 9 -13 -16 -15 -16 -38 3 -22 17 -25 26 -24 80 1 42 6 64 16 71
17 11 89 2 108 -13 21 -18 14 -57 -13 -70 -32 -15 -32 -24 2 -31 51 -10 91 3
103 33 10 25 7 38 -25 111 -20 46 -51 100 -68 121 -18 20 -41 49 -53 64 l-20
27 -31 -64z"/>
<path d="M6387 4330 c-20 -11 -43 -20 -49 -20 -7 0 -33 -14 -57 -30 -24 -17
-52 -30 -61 -30 -16 0 -49 -13 -110 -43 -33 -16 -42 -77 -12 -77 10 0 27 9 36
19 10 11 46 34 81 51 35 18 69 38 76 46 6 8 17 14 23 14 6 0 38 13 71 30 33
16 65 30 71 30 7 0 14 7 18 15 8 22 -41 19 -87 -5z"/>
<path d="M1240 4260 c0 -5 6 -10 14 -10 8 0 18 5 21 10 3 6 -3 10 -14 10 -12
0 -21 -4 -21 -10z"/>
<path d="M4820 4220 c0 -19 5 -30 14 -30 21 0 25 11 15 38 -12 32 -29 27 -29
-8z"/>
<path d="M4643 4228 c-14 -22 -4 -209 14 -268 10 -30 30 -74 45 -96 15 -23 28
-50 28 -60 0 -11 7 -28 15 -38 8 -11 15 -26 15 -34 0 -7 16 -34 35 -59 37 -48
45 -83 20 -83 -21 0 -55 -72 -55 -118 0 -21 -5 -43 -11 -49 -6 -6 -14 -26 -19
-44 -11 -46 -30 -98 -46 -131 -8 -14 -14 -33 -14 -42 0 -9 -21 -60 -46 -113
-26 -54 -67 -141 -92 -193 -24 -52 -48 -102 -52 -110 -68 -130 -117 -238 -125
-275 -4 -16 -9 -37 -12 -45 -3 -8 -5 -28 -4 -43 3 -34 -100 -244 -141 -289
-16 -17 -28 -38 -28 -48 0 -10 -7 -31 -15 -46 -8 -16 -15 -39 -15 -50 0 -12
-6 -27 -14 -33 -7 -6 -28 -57 -46 -114 -43 -136 -60 -175 -77 -181 -8 -4 -13
-13 -10 -20 7 -17 -8 -76 -29 -123 -8 -17 -14 -45 -14 -63 0 -17 -5 -41 -12
-53 -11 -21 -29 -90 -47 -182 -5 -22 -13 -53 -20 -68 -6 -16 -11 -46 -11 -68
0 -22 -5 -49 -10 -59 -10 -18 -34 -115 -49 -195 -4 -23 -11 -46 -15 -53 -4 -7
-11 -42 -16 -80 -5 -37 -16 -96 -25 -132 -9 -36 -22 -97 -29 -135 -7 -39 -18
-80 -24 -92 -7 -12 -12 -38 -12 -58 0 -20 -5 -46 -12 -58 -6 -12 -15 -56 -19
-97 -5 -41 -11 -88 -15 -103 l-6 -28 98 3 99 3 5 40 c3 22 9 46 14 53 4 8 12
53 17 100 4 48 13 107 20 132 6 25 18 70 26 100 8 30 19 69 25 85 6 17 14 55
18 85 4 30 20 112 34 182 14 70 26 139 26 153 0 15 4 34 10 44 5 10 14 49 20
87 5 38 14 85 19 104 5 19 17 73 26 120 9 47 23 103 31 125 8 23 14 55 14 73
0 17 6 49 14 69 7 21 21 65 31 98 9 33 22 71 28 85 5 14 14 43 18 65 20 101
36 140 58 143 11 2 23 -3 25 -10 2 -7 9 -33 15 -58 43 -163 53 -197 66 -217 8
-12 15 -34 15 -49 0 -14 6 -40 13 -57 18 -42 43 -123 52 -164 4 -18 11 -35 16
-38 5 -4 9 -23 9 -43 0 -21 6 -46 13 -57 14 -20 39 -111 56 -200 9 -46 23
-108 49 -210 6 -22 18 -78 27 -125 10 -47 22 -90 27 -97 5 -7 7 -20 4 -30 -3
-10 2 -52 10 -93 8 -41 19 -106 23 -145 5 -38 14 -94 20 -124 6 -29 11 -69 11
-88 0 -19 7 -59 16 -89 l15 -54 90 0 c104 0 100 -7 74 127 -8 43 -15 99 -15
125 0 25 -4 68 -10 95 -34 168 -43 214 -50 263 -4 30 -13 75 -19 100 -5 25
-17 83 -26 130 -9 47 -20 103 -26 125 -6 22 -14 60 -18 85 -7 44 -51 204 -73
265 -5 17 -12 41 -14 55 -8 42 -83 303 -105 365 -6 17 -15 46 -19 65 -10 45
-28 97 -46 133 -8 16 -14 39 -14 51 0 12 -7 31 -15 42 -8 10 -15 27 -15 36 0
16 -12 49 -46 123 -30 67 -28 79 26 192 28 59 55 115 60 124 5 9 41 79 80 155
39 77 75 147 80 157 71 128 90 169 119 262 18 55 39 113 47 128 8 16 14 43 14
60 0 18 7 45 15 61 8 15 15 42 15 60 0 17 9 51 20 75 11 24 20 56 20 72 0 16
6 32 14 35 18 7 3 69 -24 99 -11 13 -20 45 -25 86 -6 59 -8 66 -26 62 -12 -4
-21 1 -25 13 -3 11 -17 45 -30 77 -22 53 -23 60 -9 80 23 33 18 48 -30 97 -25
25 -52 58 -61 73 -14 26 -14 31 0 46 14 15 13 18 -4 29 -25 15 -37 15 -47 0z"/>
<path d="M1500 4221 c-20 -14 -9 -22 38 -28 25 -3 42 -1 47 7 4 6 5 13 2 16
-10 11 -73 14 -87 5z"/>
<path d="M5320 4164 c8 -10 34 -38 58 -61 l45 -42 29 20 c16 12 28 28 26 38
-4 21 -72 52 -128 59 -43 5 -44 4 -30 -14z"/>
<path d="M3604 4103 c-14 -9 -20 -21 -17 -34 7 -27 22 -24 34 8 13 35 8 44
-17 26z"/>
<path d="M2685 4060 c-9 -14 13 -40 33 -40 8 0 23 -6 31 -14 18 -17 162 -76
184 -76 14 0 44 28 36 33 -15 10 -178 57 -197 57 -13 0 -33 11 -46 25 -26 28
-32 30 -41 15z"/>
<path d="M5500 4010 c-20 -15 -23 -21 -12 -31 6 -7 12 -24 12 -38 0 -13 7 -33
16 -42 21 -23 8 -59 -37 -108 -16 -18 -29 -36 -29 -42 0 -11 27 -12 32 -1 5
11 86 72 96 72 15 0 25 -71 13 -83 -6 -6 -11 -19 -11 -29 0 -11 -9 -36 -20
-58 -22 -42 -29 -164 -10 -175 6 -3 12 0 14 7 2 7 9 33 16 58 6 25 15 80 20
122 4 42 11 81 15 87 12 21 43 12 49 -14 7 -27 15 -30 63 -16 23 7 37 5 53 -6
15 -11 25 -12 32 -5 7 7 21 4 45 -9 40 -22 53 -18 35 11 -16 26 -15 32 6 29
53 -5 69 1 85 36 12 24 24 35 39 36 15 0 18 2 8 6 -18 7 -63 54 -57 59 2 3 15
1 28 -4 13 -5 49 -18 79 -27 30 -10 64 -24 75 -32 11 -7 25 -13 32 -13 19 0
16 20 -4 27 -10 3 -34 18 -53 33 -19 15 -66 42 -103 60 -37 18 -77 46 -88 62
-11 15 -29 28 -40 28 -23 0 -23 -1 -4 -47 8 -19 15 -46 15 -60 0 -13 11 -34
26 -46 21 -18 25 -29 22 -62 -3 -36 -4 -38 -20 -22 -21 21 -48 22 -48 2 0 -19
-24 -20 -42 -2 -7 8 -42 17 -77 20 -49 5 -71 14 -102 38 -58 45 -99 112 -99
160 0 34 -3 39 -22 39 -13 0 -34 -9 -48 -20z"/>
<path d="M3389 3985 c-19 -14 -42 -28 -51 -31 -10 -4 -18 -12 -18 -19 0 -16
61 -26 77 -13 7 5 29 8 50 6 33 -3 39 1 52 26 12 26 12 31 -5 43 -27 20 -67
16 -105 -12z"/>
<path d="M3577 4003 c-4 -3 -7 -12 -7 -20 0 -11 4 -11 20 -3 11 6 18 15 15 21
-7 11 -19 12 -28 2z"/>
<path d="M5225 3970 c-4 -6 5 -10 19 -10 14 0 26 5 26 10 0 6 -9 10 -19 10
-11 0 -23 -4 -26 -10z"/>
<path d="M6246 3961 c-4 -5 12 -28 34 -51 22 -23 40 -48 40 -55 0 -17 110 -79
167 -94 23 -7 45 -16 48 -21 3 -6 27 -10 53 -10 26 0 79 -7 117 -16 39 -8 122
-19 185 -24 134 -10 172 -21 191 -57 8 -14 28 -32 44 -40 88 -42 114 -63 115
-93 0 -20 60 -60 91 -60 25 0 57 -16 49 -24 -3 -2 -49 -8 -103 -12 -91 -6
-100 -5 -127 15 -31 22 -50 27 -50 12 0 -8 29 -75 49 -111 26 -49 41 -83 41
-93 0 -6 8 -19 17 -29 25 -28 30 -170 8 -245 -9 -32 -19 -63 -21 -70 -1 -7
-19 -15 -39 -19 -19 -3 -38 -10 -41 -15 -3 -5 -20 -15 -38 -23 -18 -7 -52 -34
-76 -60 -24 -25 -48 -46 -53 -46 -6 0 -25 -11 -43 -25 -34 -26 -59 -32 -69
-15 -16 25 -105 -10 -105 -42 0 -6 -12 -22 -26 -35 -19 -17 -33 -23 -50 -19
-20 5 -24 3 -24 -18 0 -33 -31 -86 -51 -86 -8 0 -20 5 -26 11 -8 8 -16 1 -29
-26 -18 -38 -45 -57 -52 -37 -7 22 -29 12 -42 -17 -20 -49 -90 -48 -106 1 -3
10 -9 18 -14 18 -5 0 -15 3 -24 6 -12 5 -16 -1 -16 -24 l0 -31 -37 18 c-111
51 -138 89 -101 136 18 23 19 30 8 51 -11 19 -11 27 -2 36 7 7 12 20 12 31 0
13 5 17 19 12 15 -4 20 1 25 30 7 34 19 45 30 26 3 -5 14 -11 25 -14 17 -4 18
-2 8 22 -13 29 -30 50 -99 121 -26 27 -55 62 -65 77 -9 15 -23 32 -30 36 -7 4
-13 15 -13 23 0 25 -44 114 -57 114 -13 0 -63 81 -63 102 0 7 -9 21 -20 31
-11 9 -20 23 -20 32 0 16 -34 38 -44 28 -3 -3 -6 -30 -6 -58 0 -45 4 -56 33
-83 101 -96 129 -132 142 -183 11 -40 25 -62 60 -94 45 -41 45 -42 45 -107 0
-66 -25 -145 -56 -176 -8 -7 -14 -19 -14 -25 0 -17 -48 -67 -64 -67 -20 0 -33
174 -16 195 9 11 9 19 2 28 -16 19 25 52 63 52 47 0 46 37 -2 84 -40 40 -103
124 -103 138 0 4 -23 34 -50 67 -28 32 -62 79 -77 105 -14 25 -56 75 -92 111
-37 36 -87 89 -111 117 -54 63 -70 67 -70 16 0 -62 8 -75 92 -148 43 -38 97
-86 118 -105 28 -24 40 -44 40 -62 0 -14 6 -39 14 -55 18 -36 34 -101 46 -186
5 -38 13 -73 17 -80 4 -6 10 -29 14 -52 14 -75 38 -158 48 -168 6 -6 11 -23
11 -38 0 -35 23 -90 47 -110 10 -9 52 -33 93 -53 41 -21 82 -41 90 -46 39 -22
140 -42 186 -37 147 17 171 24 245 73 77 52 149 138 149 179 0 21 40 105 62
133 12 14 28 16 28 3 0 -6 14 -25 30 -43 17 -18 40 -53 52 -77 11 -24 37 -61
58 -82 34 -36 41 -39 91 -39 61 0 134 22 194 60 22 13 45 27 50 30 32 16 158
105 196 137 24 21 60 47 79 57 72 39 120 86 120 116 0 16 5 32 10 35 20 12 50
85 50 120 0 20 7 49 15 64 17 34 38 141 38 196 0 99 -62 164 -180 191 -38 9
-88 22 -113 30 -25 8 -53 14 -62 14 -10 0 -32 6 -50 14 -18 8 -45 17 -59 20
-18 4 -38 25 -67 68 -70 108 -149 172 -252 205 -69 22 -248 53 -309 53 -69 0
-228 28 -263 46 -14 8 -33 14 -42 14 -9 0 -24 4 -34 9 -9 6 -29 12 -44 16 -16
3 -28 12 -28 20 0 24 -52 45 -64 26z m1182 -611 c121 -13 162 -24 235 -69 l58
-35 -56 -18 c-37 -11 -72 -16 -103 -12 -42 5 -45 4 -29 -9 9 -8 17 -24 17 -36
0 -19 6 -21 49 -21 65 0 111 -17 111 -41 0 -11 -7 -22 -15 -24 -52 -17 -50
-15 -33 -31 20 -20 13 -90 -11 -118 -9 -10 -16 -28 -16 -40 0 -18 -6 -21 -40
-21 -38 0 -40 -2 -37 -27 2 -23 -1 -27 -19 -25 -21 2 -32 -10 -43 -45 -3 -9
-22 -22 -43 -28 -31 -10 -43 -21 -59 -53 -19 -40 -23 -42 -65 -43 -37 0 -44
-4 -47 -22 -4 -26 -36 -46 -64 -39 -12 4 -31 -5 -52 -24 -19 -16 -41 -29 -50
-29 -61 0 -147 81 -127 118 6 11 24 25 41 30 19 7 30 18 30 29 0 33 29 63 61
63 28 0 46 13 87 64 7 9 23 37 36 62 14 27 26 42 30 35 12 -18 30 -12 42 13 9
19 7 27 -11 48 -12 14 -28 54 -35 89 -7 35 -19 76 -27 91 -7 15 -13 42 -13 61
0 19 -7 40 -15 47 -15 13 -20 51 -8 63 9 10 109 8 221 -3z m-1438 -526 c0 -8
-4 -12 -10 -9 -5 3 -10 13 -10 21 0 8 5 12 10 9 6 -3 10 -13 10 -21z"/>
<path d="M1530 3943 c0 -5 25 -19 55 -33 30 -14 55 -28 55 -31 0 -9 95 -49
115 -49 8 0 33 -11 54 -25 22 -13 51 -27 65 -31 15 -3 40 -19 57 -35 39 -36
66 -43 104 -24 l30 14 -24 7 c-14 4 -67 29 -119 56 -52 26 -101 48 -109 48 -8
0 -21 7 -29 15 -9 8 -23 15 -32 15 -9 0 -39 11 -66 25 -27 14 -59 25 -70 25
-12 0 -30 7 -40 15 -21 16 -46 20 -46 8z"/>
<path d="M3583 3870 c7 -57 13 -69 26 -54 13 14 -2 97 -18 102 -11 4 -13 -5
-8 -48z"/>
<path d="M6110 3755 c0 -8 130 -68 135 -63 3 2 -15 15 -40 27 -24 12 -47 26
-50 32 -6 9 -45 13 -45 4z"/>
<path d="M2363 3723 c-20 -7 -15 -23 7 -23 11 0 20 4 20 9 0 13 -12 19 -27 14z"/>
<path d="M1820 3686 c-8 -8 -44 -24 -80 -36 -36 -12 -84 -37 -107 -56 -23 -19
-48 -34 -56 -34 -8 0 -26 -10 -41 -21 -40 -32 -110 -49 -196 -49 -42 0 -81 -5
-87 -11 -8 -8 -13 -8 -17 0 -12 19 -46 13 -46 -9 0 -23 29 -27 60 -8 15 10 28
9 67 -5 54 -19 128 -23 139 -6 4 6 20 8 39 5 27 -5 35 -2 48 18 9 13 38 34 64
47 26 13 66 35 88 50 22 14 67 39 100 55 33 15 62 29 63 30 6 4 -9 44 -17 44
-3 0 -13 -6 -21 -14z"/>
<path d="M5217 3662 c-3 -15 0 -33 5 -40 8 -9 7 -20 -2 -37 -17 -32 -6 -58 20
-50 15 5 20 2 20 -14 0 -15 8 -20 32 -23 28 -3 33 -7 40 -41 7 -32 4 -46 -17
-80 -51 -87 -185 -227 -216 -227 -11 0 -36 -8 -57 -19 -20 -10 -49 -21 -64
-25 -26 -6 -26 -5 -18 27 5 17 9 48 9 67 1 149 13 194 59 211 l27 11 -22 18
c-13 10 -23 29 -23 42 0 23 -16 57 -22 48 -11 -16 -31 -81 -35 -112 -3 -21
-11 -42 -19 -49 -8 -6 -14 -27 -14 -46 0 -18 -7 -50 -15 -70 -8 -19 -15 -45
-15 -57 0 -11 -7 -33 -14 -48 -8 -16 -18 -49 -21 -75 -4 -27 -13 -58 -21 -70
-18 -28 -18 -59 0 -66 7 -3 31 1 52 8 22 8 46 14 56 15 15 0 111 40 188 78 67
34 125 75 178 126 50 48 142 159 142 172 0 3 7 12 15 20 22 22 18 51 -7 65
-48 26 -119 104 -148 164 -43 88 -84 123 -93 77z"/>
<path d="M6170 3611 c0 -11 26 -22 34 -14 3 3 3 10 0 14 -7 12 -34 11 -34 0z"/>
<path d="M5724 3514 c7 -53 12 -64 32 -64 17 0 17 -4 -1 58 -20 65 -38 69 -31
6z"/>
<path d="M2080 3532 c-23 -11 -36 -25 -38 -41 -3 -21 -1 -23 25 -17 26 6 73
50 73 69 0 11 -22 7 -60 -11z"/>
<path d="M6815 3529 c6 -19 4 -21 -16 -15 -47 15 -119 19 -119 7 0 -6 12 -13
28 -17 15 -3 36 -9 47 -14 11 -5 54 -11 96 -15 42 -3 91 -10 110 -15 18 -5 37
-6 42 -1 12 12 -17 31 -73 46 -29 8 -60 21 -69 29 -27 24 -54 21 -46 -5z"/>
<path d="M5970 3491 c0 -23 8 -41 29 -60 20 -19 30 -40 35 -76 4 -28 15 -61
24 -75 22 -33 39 -60 52 -86 15 -26 61 -54 90 -54 26 0 44 -19 66 -68 15 -33
36 -39 42 -11 3 16 -64 99 -80 99 -22 0 -89 64 -115 108 -15 26 -37 60 -50 75
-13 16 -23 39 -23 52 0 12 -7 28 -15 35 -8 7 -15 22 -15 35 0 12 -9 30 -20 40
-20 18 -20 17 -20 -14z"/>
<path d="M6170 3464 c0 -10 132 -134 142 -134 10 0 -36 54 -91 107 -33 31 -51
41 -51 27z"/>
<path d="M5757 3373 c-11 -10 -8 -51 3 -58 6 -3 10 -17 10 -31 0 -17 5 -24 20
-24 24 0 26 22 5 40 -8 7 -15 28 -15 46 0 32 -9 42 -23 27z"/>
<path d="M6397 3225 c17 -24 53 -34 53 -16 0 8 -54 41 -67 41 -2 0 4 -11 14
-25z"/>
<path d="M6445 3130 c-3 -5 3 -10 15 -10 12 0 18 5 15 10 -3 6 -10 10 -15 10
-5 0 -12 -4 -15 -10z"/>
<path d="M6510 3115 c0 -3 10 -19 22 -35 19 -26 28 -30 68 -30 25 0 55 -7 66
-15 22 -16 64 -20 64 -5 0 13 -102 60 -131 60 -14 0 -29 4 -34 9 -13 11 -55
24 -55 16z"/>
<path d="M7080 3030 c19 -13 30 -13 30 0 0 6 -10 10 -22 10 -19 0 -20 -2 -8
-10z"/>
<path d="M6550 2980 c0 -5 19 -15 43 -21 23 -7 50 -18 60 -25 19 -12 57 -8 57
7 0 5 -7 9 -15 9 -8 0 -24 9 -35 20 -14 14 -33 20 -65 20 -25 0 -45 -4 -45
-10z"/>
<path d="M6855 2970 c28 -12 37 -12 30 0 -3 6 -16 10 -28 9 -21 0 -21 -1 -2
-9z"/>
<path d="M6947 2953 c-13 -12 26 -43 55 -43 36 0 36 11 -1 33 -31 18 -44 21
-54 10z"/>
<path d="M6740 2921 c0 -10 42 -23 49 -15 7 6 -20 24 -36 24 -7 0 -13 -4 -13
-9z"/>
<path d="M6325 2900 c-3 -5 8 -28 25 -51 20 -28 30 -54 30 -78 0 -51 14 -70
30 -42 7 14 19 21 32 19 36 -5 30 15 -22 79 -53 66 -84 90 -95 73z"/>
<path d="M6795 2819 c-5 -14 -2 -25 6 -30 21 -13 34 -5 34 22 0 31 -31 38 -40
8z"/>
<path d="M6325 2660 c-9 -15 -1 -23 21 -18 15 3 16 4 1 16 -11 9 -17 10 -22 2z"/>
</g>
</svg>
